<svg xmlns="http://www.w3.org/2000/svg" xmlns:xlink="http://www.w3.org/1999/xlink" width="500" zoomAndPan="magnify" viewBox="0 0 375 374.999991" height="500" preserveAspectRatio="xMidYMid meet" version="1.0"><defs><clipPath id="fc6e2cb602"><path d="M 25.878906 0 L 353.90625 0 L 353.90625 328.027344 L 25.878906 328.027344 Z M 25.878906 0 " clip-rule="nonzero"/></clipPath><clipPath id="e4628d8fee"><path d="M 189.894531 0 C 99.3125 0 25.878906 73.429688 25.878906 164.011719 C 25.878906 254.59375 99.3125 328.027344 189.894531 328.027344 C 280.472656 328.027344 353.90625 254.59375 353.90625 164.011719 C 353.90625 73.429688 280.472656 0 189.894531 0 " clip-rule="nonzero"/></clipPath></defs><g clip-path="url(#fc6e2cb602)"><g clip-path="url(#e4628d8fee)"><path fill="#fcf0ff" d="M 25.878906 0 L 353.90625 0 L 353.90625 328.027344 L 25.878906 328.027344 Z M 25.878906 0 " fill-opacity="1" fill-rule="nonzero"/></g></g><path fill="#000000" d="M 187.953125 0 C 184.878906 0 181.804688 0.0742188 178.730469 0.226562 C 175.660156 0.378906 172.59375 0.605469 169.53125 0.90625 C 166.46875 1.207031 163.417969 1.582031 160.375 2.035156 C 157.332031 2.484375 154.300781 3.011719 151.285156 3.613281 C 148.269531 4.210938 145.269531 4.886719 142.285156 5.632812 C 139.300781 6.378906 136.335938 7.199219 133.394531 8.09375 C 130.449219 8.984375 127.53125 9.949219 124.632812 10.988281 C 121.738281 12.023438 118.867188 13.128906 116.027344 14.308594 C 113.183594 15.484375 110.375 16.730469 107.59375 18.046875 C 104.8125 19.359375 102.066406 20.742188 99.351562 22.191406 C 96.640625 23.644531 93.964844 25.160156 91.324219 26.742188 C 88.6875 28.320312 86.089844 29.96875 83.53125 31.675781 C 80.972656 33.386719 78.460938 35.15625 75.988281 36.988281 C 73.519531 38.820312 71.09375 40.710938 68.71875 42.664062 C 66.339844 44.613281 64.011719 46.625 61.730469 48.6875 C 59.453125 50.753906 57.226562 52.875 55.050781 55.050781 C 52.875 57.226562 50.753906 59.453125 48.6875 61.730469 C 46.625 64.011719 44.613281 66.339844 42.664062 68.71875 C 40.710938 71.09375 38.820312 73.519531 36.988281 75.988281 C 35.15625 78.460938 33.386719 80.972656 31.675781 83.53125 C 29.96875 86.089844 28.320312 88.6875 26.742188 91.324219 C 25.160156 93.964844 23.644531 96.640625 22.191406 99.351562 C 20.742188 102.066406 19.359375 104.8125 18.046875 107.59375 C 16.730469 110.375 15.484375 113.183594 14.308594 116.027344 C 13.128906 118.867188 12.023438 121.738281 10.988281 124.632812 C 9.949219 127.53125 8.984375 130.449219 8.09375 133.394531 C 7.199219 136.335938 6.378906 139.300781 5.632812 142.285156 C 4.886719 145.269531 4.210938 148.269531 3.613281 151.285156 C 3.011719 154.300781 2.484375 157.332031 2.035156 160.375 C 1.582031 163.417969 1.207031 166.46875 0.90625 169.53125 C 0.605469 172.59375 0.378906 175.660156 0.226562 178.730469 C 0.0742188 181.804688 0 184.878906 0 187.953125 C 0 191.03125 0.0742188 194.105469 0.226562 197.175781 C 0.378906 200.25 0.605469 203.316406 0.90625 206.375 C 1.207031 209.4375 1.582031 212.488281 2.035156 215.53125 C 2.484375 218.574219 3.011719 221.605469 3.613281 224.621094 C 4.210938 227.636719 4.886719 230.640625 5.632812 233.621094 C 6.378906 236.605469 7.199219 239.570312 8.09375 242.515625 C 8.984375 245.457031 9.949219 248.378906 10.988281 251.273438 C 12.023438 254.167969 13.128906 257.039062 14.308594 259.878906 C 15.484375 262.722656 16.730469 265.535156 18.046875 268.3125 C 19.359375 271.09375 20.742188 273.839844 22.191406 276.554688 C 23.644531 279.265625 25.160156 281.941406 26.742188 284.582031 C 28.320312 287.21875 29.96875 289.816406 31.675781 292.375 C 33.386719 294.933594 35.15625 297.445312 36.988281 299.917969 C 38.820312 302.386719 40.710938 304.8125 42.664062 307.191406 C 44.613281 309.566406 46.625 311.894531 48.6875 314.175781 C 50.753906 316.453125 52.875 318.683594 55.050781 320.855469 C 57.226562 323.03125 59.453125 325.152344 61.730469 327.21875 C 64.011719 329.285156 66.339844 331.292969 68.71875 333.242188 C 71.09375 335.195312 73.519531 337.085938 75.988281 338.917969 C 78.460938 340.75 80.972656 342.523438 83.53125 344.230469 C 86.089844 345.941406 88.6875 347.585938 91.324219 349.167969 C 93.964844 350.75 96.640625 352.265625 99.351562 353.714844 C 102.066406 355.164062 104.8125 356.546875 107.59375 357.863281 C 110.375 359.175781 113.183594 360.421875 116.027344 361.601562 C 118.867188 362.777344 121.738281 363.882812 124.632812 364.921875 C 127.53125 365.957031 130.449219 366.921875 133.394531 367.8125 C 136.335938 368.707031 139.300781 369.527344 142.285156 370.273438 C 145.269531 371.023438 148.269531 371.695312 151.285156 372.296875 C 154.300781 372.894531 157.332031 373.421875 160.375 373.871094 C 163.417969 374.324219 166.46875 374.699219 169.53125 375.003906 C 172.59375 375.304688 175.660156 375.53125 178.730469 375.679688 C 181.804688 375.832031 184.878906 375.90625 187.953125 375.90625 C 191.03125 375.90625 194.105469 375.832031 197.175781 375.679688 C 200.25 375.53125 203.316406 375.304688 206.375 375.003906 C 209.4375 374.699219 212.488281 374.324219 215.53125 373.871094 C 218.574219 373.421875 221.605469 372.894531 224.621094 372.296875 C 227.636719 371.695312 230.640625 371.023438 233.621094 370.273438 C 236.605469 369.527344 239.570312 368.707031 242.515625 367.8125 C 245.457031 366.921875 248.378906 365.957031 251.273438 364.921875 C 254.167969 363.882812 257.039062 362.777344 259.878906 361.601562 C 262.722656 360.421875 265.535156 359.175781 268.3125 357.863281 C 271.09375 356.546875 273.839844 355.164062 276.554688 353.714844 C 279.265625 352.265625 281.941406 350.75 284.582031 349.167969 C 287.21875 347.585938 289.816406 345.941406 292.375 344.230469 C 294.933594 342.523438 297.445312 340.75 299.917969 338.917969 C 302.386719 337.085938 304.8125 335.195312 307.191406 333.242188 C 309.566406 331.292969 311.894531 329.285156 314.175781 327.21875 C 316.453125 325.152344 318.683594 323.03125 320.855469 320.855469 C 323.03125 318.683594 325.152344 316.453125 327.21875 314.175781 C 329.285156 311.894531 331.292969 309.566406 333.242188 307.191406 C 335.195312 304.8125 337.085938 302.386719 338.917969 299.917969 C 340.75 297.445312 342.523438 294.933594 344.230469 292.375 C 345.941406 289.816406 347.585938 287.21875 349.167969 284.582031 C 350.75 281.941406 352.265625 279.265625 353.714844 276.554688 C 355.164062 273.839844 356.546875 271.09375 357.863281 268.3125 C 359.175781 265.535156 360.421875 262.722656 361.601562 259.878906 C 362.777344 257.039062 363.882812 254.167969 364.921875 251.273438 C 365.957031 248.378906 366.921875 245.457031 367.8125 242.515625 C 368.707031 239.570312 369.527344 236.605469 370.273438 233.621094 C 371.023438 230.640625 371.695312 227.636719 372.296875 224.621094 C 372.894531 221.605469 373.421875 218.574219 373.871094 215.53125 C 374.324219 212.488281 374.699219 209.4375 375.003906 206.375 C 375.304688 203.316406 375.53125 200.25 375.679688 197.175781 C 375.832031 194.105469 375.90625 191.03125 375.90625 187.953125 C 375.90625 184.878906 375.832031 181.804688 375.679688 178.730469 C 375.527344 175.660156 375.300781 172.59375 375 169.53125 C 374.699219 166.46875 374.320312 163.417969 373.871094 160.375 C 373.417969 157.332031 372.890625 154.304688 372.292969 151.289062 C 371.691406 148.269531 371.015625 145.269531 370.269531 142.285156 C 369.523438 139.304688 368.703125 136.339844 367.808594 133.394531 C 366.914062 130.453125 365.949219 127.53125 364.914062 124.636719 C 363.878906 121.742188 362.769531 118.871094 361.59375 116.03125 C 360.417969 113.1875 359.171875 110.378906 357.855469 107.597656 C 356.539062 104.816406 355.15625 102.070312 353.707031 99.359375 C 352.257812 96.644531 350.742188 93.96875 349.160156 91.332031 C 347.578125 88.691406 345.933594 86.09375 344.222656 83.539062 C 342.515625 80.980469 340.746094 78.464844 338.914062 75.996094 C 337.078125 73.523438 335.1875 71.101562 333.238281 68.722656 C 331.285156 66.347656 329.277344 64.015625 327.210938 61.738281 C 325.144531 59.460938 323.023438 57.230469 320.851562 55.058594 C 318.675781 52.882812 316.449219 50.761719 314.167969 48.695312 C 311.890625 46.628906 309.5625 44.621094 307.183594 42.671875 C 304.804688 40.71875 302.382812 38.828125 299.910156 36.996094 C 297.441406 35.164062 294.925781 33.390625 292.371094 31.683594 C 289.8125 29.972656 287.214844 28.328125 284.574219 26.746094 C 281.9375 25.167969 279.261719 23.648438 276.550781 22.199219 C 273.835938 20.75 271.089844 19.367188 268.308594 18.050781 C 265.53125 16.738281 262.71875 15.492188 259.875 14.3125 C 257.035156 13.136719 254.167969 12.027344 251.269531 10.992188 C 248.375 9.957031 245.453125 8.992188 242.511719 8.097656 C 239.566406 7.207031 236.605469 6.386719 233.621094 5.636719 C 230.636719 4.890625 227.636719 4.214844 224.621094 3.617188 C 221.601562 3.015625 218.574219 2.488281 215.53125 2.039062 C 212.488281 1.585938 209.4375 1.210938 206.375 0.90625 C 203.316406 0.605469 200.246094 0.378906 197.175781 0.226562 C 194.105469 0.078125 191.03125 0 187.953125 0 Z M 187.953125 70.484375 C 189.066406 70.480469 190.175781 70.511719 191.285156 70.578125 C 192.398438 70.640625 193.503906 70.738281 194.609375 70.863281 C 195.714844 70.992188 196.8125 71.152344 197.910156 71.34375 C 199.003906 71.535156 200.09375 71.757812 201.175781 72.011719 C 202.257812 72.265625 203.332031 72.550781 204.398438 72.867188 C 205.464844 73.1875 206.519531 73.53125 207.566406 73.910156 C 208.609375 74.289062 209.644531 74.695312 210.667969 75.132812 C 211.6875 75.570312 212.699219 76.039062 213.691406 76.535156 C 214.6875 77.03125 215.667969 77.554688 216.632812 78.105469 C 217.597656 78.660156 218.546875 79.238281 219.476562 79.847656 C 220.410156 80.453125 221.320312 81.089844 222.214844 81.75 C 223.109375 82.410156 223.984375 83.09375 224.839844 83.804688 C 225.695312 84.515625 226.53125 85.25 227.34375 86.011719 C 228.15625 86.769531 228.945312 87.550781 229.710938 88.355469 C 230.480469 89.160156 231.222656 89.988281 231.941406 90.835938 C 232.660156 91.683594 233.355469 92.550781 234.023438 93.4375 C 234.691406 94.328125 235.335938 95.234375 235.953125 96.160156 C 236.570312 97.085938 237.160156 98.027344 237.722656 98.984375 C 238.285156 99.945312 238.816406 100.921875 239.324219 101.910156 C 239.828125 102.902344 240.304688 103.90625 240.753906 104.921875 C 241.199219 105.941406 241.617188 106.96875 242.007812 108.011719 C 242.394531 109.054688 242.753906 110.105469 243.078125 111.167969 C 243.40625 112.230469 243.703125 113.304688 243.96875 114.382812 C 244.234375 115.464844 244.46875 116.550781 244.667969 117.644531 C 244.871094 118.738281 245.042969 119.835938 245.179688 120.9375 C 245.320312 122.042969 245.425781 123.148438 245.5 124.257812 C 245.574219 125.367188 245.617188 126.476562 245.628906 127.589844 C 245.640625 128.699219 245.617188 129.8125 245.5625 130.921875 C 245.511719 132.035156 245.425781 133.140625 245.304688 134.246094 C 245.1875 135.351562 245.039062 136.453125 244.855469 137.550781 C 244.675781 138.648438 244.460938 139.738281 244.214844 140.824219 C 243.972656 141.910156 243.695312 142.984375 243.390625 144.054688 C 243.082031 145.121094 242.742188 146.179688 242.375 147.230469 C 242.007812 148.28125 241.609375 149.316406 241.179688 150.34375 C 240.753906 151.371094 240.292969 152.382812 239.808594 153.382812 C 239.320312 154.382812 238.804688 155.367188 238.261719 156.335938 C 237.714844 157.304688 237.144531 158.257812 236.546875 159.195312 C 235.945312 160.132812 235.320312 161.050781 234.667969 161.949219 C 234.015625 162.851562 233.339844 163.734375 232.636719 164.59375 C 231.933594 165.453125 231.203125 166.296875 230.453125 167.113281 C 229.699219 167.933594 228.925781 168.730469 228.128906 169.503906 C 227.328125 170.277344 226.511719 171.03125 225.667969 171.757812 C 224.828125 172.484375 223.964844 173.183594 223.082031 173.863281 C 222.203125 174.539062 221.300781 175.191406 220.378906 175.816406 C 219.460938 176.441406 218.523438 177.039062 217.570312 177.609375 C 216.617188 178.179688 215.644531 178.722656 214.660156 179.238281 C 213.675781 179.75 212.675781 180.238281 211.660156 180.691406 C 210.648438 181.148438 209.621094 181.578125 208.582031 181.972656 C 207.542969 182.371094 206.496094 182.738281 205.433594 183.074219 C 204.375 183.410156 203.304688 183.71875 202.230469 183.992188 C 201.152344 184.265625 200.066406 184.511719 198.976562 184.722656 C 197.882812 184.933594 196.785156 185.113281 195.683594 185.261719 C 194.582031 185.410156 193.476562 185.527344 192.367188 185.613281 C 191.261719 185.699219 190.148438 185.75 189.039062 185.769531 C 187.925781 185.792969 186.816406 185.78125 185.703125 185.734375 C 184.59375 185.691406 183.484375 185.617188 182.378906 185.507812 C 181.269531 185.398438 180.167969 185.257812 179.070312 185.085938 C 177.972656 184.914062 176.878906 184.710938 175.792969 184.476562 C 174.703125 184.242188 173.625 183.976562 172.554688 183.675781 C 171.484375 183.378906 170.421875 183.050781 169.367188 182.691406 C 168.316406 182.332031 167.277344 181.945312 166.246094 181.527344 C 165.214844 181.105469 164.199219 180.65625 163.195312 180.179688 C 162.191406 179.703125 161.203125 179.195312 160.226562 178.660156 C 159.253906 178.125 158.292969 177.5625 157.351562 176.96875 C 108.953125 146.308594 129.921875 71.070312 187.953125 70.484375 Z M 255.558594 305.425781 L 120.347656 305.425781 C 118.953125 305.421875 117.5625 305.351562 116.175781 305.210938 C 114.785156 305.074219 113.40625 304.867188 112.039062 304.589844 C 110.671875 304.316406 109.320312 303.976562 107.984375 303.570312 C 106.652344 303.164062 105.339844 302.691406 104.050781 302.15625 C 102.765625 301.621094 101.503906 301.023438 100.273438 300.363281 C 99.046875 299.703125 97.851562 298.988281 96.691406 298.210938 C 95.53125 297.433594 94.414062 296.605469 93.335938 295.71875 C 92.257812 294.832031 91.226562 293.894531 90.242188 292.90625 C 89.253906 291.921875 88.320312 290.886719 87.4375 289.808594 C 86.550781 288.730469 85.722656 287.609375 84.945312 286.449219 C 84.171875 285.289062 83.457031 284.09375 82.796875 282.863281 C 82.140625 281.632812 81.546875 280.371094 81.011719 279.085938 C 80.476562 277.796875 80.007812 276.484375 79.605469 275.148438 C 79.199219 273.8125 78.859375 272.460938 78.585938 271.09375 C 78.316406 269.726562 78.109375 268.347656 77.972656 266.957031 C 77.835938 265.570312 77.765625 264.179688 77.765625 262.78125 C 77.765625 226.660156 104.371094 195.472656 142.550781 181.433594 C 144.121094 182.761719 145.75 184.019531 147.429688 185.207031 C 149.113281 186.394531 150.84375 187.503906 152.621094 188.539062 C 154.402344 189.574219 156.222656 190.527344 158.085938 191.402344 C 159.949219 192.277344 161.84375 193.066406 163.777344 193.773438 C 165.710938 194.484375 167.667969 195.105469 169.65625 195.640625 C 171.644531 196.175781 173.652344 196.625 175.675781 196.984375 C 177.703125 197.34375 179.742188 197.613281 181.792969 197.792969 C 183.839844 197.972656 185.894531 198.0625 187.953125 198.0625 C 190.011719 198.0625 192.066406 197.972656 194.117188 197.792969 C 196.164062 197.613281 198.203125 197.34375 200.230469 196.984375 C 202.257812 196.625 204.261719 196.175781 206.25 195.640625 C 208.238281 195.105469 210.199219 194.484375 212.128906 193.773438 C 214.0625 193.066406 215.960938 192.277344 217.824219 191.402344 C 219.6875 190.527344 221.507812 189.574219 223.285156 188.539062 C 225.066406 187.503906 226.796875 186.394531 228.476562 185.207031 C 230.160156 184.019531 231.785156 182.761719 233.355469 181.433594 C 271.535156 195.472656 298.140625 226.660156 298.140625 262.78125 C 298.140625 264.179688 298.070312 265.570312 297.933594 266.957031 C 297.796875 268.347656 297.59375 269.726562 297.320312 271.09375 C 297.046875 272.460938 296.707031 273.8125 296.304688 275.148438 C 295.898438 276.484375 295.429688 277.796875 294.894531 279.085938 C 294.363281 280.371094 293.765625 281.632812 293.109375 282.863281 C 292.449219 284.09375 291.734375 285.289062 290.960938 286.449219 C 290.1875 287.609375 289.355469 288.730469 288.472656 289.808594 C 287.585938 290.886719 286.652344 291.921875 285.667969 292.90625 C 284.679688 293.894531 283.648438 294.832031 282.570312 295.71875 C 281.492188 296.605469 280.375 297.433594 279.214844 298.210938 C 278.054688 298.988281 276.863281 299.703125 275.632812 300.363281 C 274.402344 301.023438 273.144531 301.621094 271.855469 302.15625 C 270.566406 302.691406 269.253906 303.164062 267.921875 303.570312 C 266.585938 303.976562 265.234375 304.316406 263.867188 304.589844 C 262.5 304.867188 261.121094 305.074219 259.734375 305.210938 C 258.34375 305.351562 256.953125 305.421875 255.558594 305.425781 Z M 255.558594 305.425781 " fill-opacity="1" fill-rule="nonzero"/></svg>