<svg xmlns="http://www.w3.org/2000/svg" xmlns:xlink="http://www.w3.org/1999/xlink" width="500" zoomAndPan="magnify" viewBox="0 0 375 374.999991" height="500" preserveAspectRatio="xMidYMid meet" version="1.0"><defs><clipPath id="ba0c3236e1"><path d="M 12.574219 32.472656 L 362.074219 32.472656 L 362.074219 342.222656 L 12.574219 342.222656 Z M 12.574219 32.472656 " clip-rule="nonzero"/></clipPath></defs><g clip-path="url(#ba0c3236e1)"><path fill="#000000" d="M 187.324219 342.144531 L 183.621094 339.628906 C 183.199219 339.347656 140.632812 310.269531 98.691406 270.074219 C 73.945312 246.308594 54.164062 223.382812 39.90625 201.851562 C 21.800781 174.308594 12.574219 148.796875 12.574219 126.148438 C 12.574219 74.5625 54.585938 32.550781 106.171875 32.550781 C 125.324219 32.550781 143.847656 38.421875 159.644531 49.605469 C 171.105469 57.714844 180.472656 68.058594 187.324219 79.941406 C 194.175781 67.988281 203.539062 57.644531 215.003906 49.605469 C 230.800781 38.421875 249.324219 32.550781 268.476562 32.550781 C 320.0625 32.550781 362.074219 74.5625 362.074219 126.148438 L 362.074219 126.21875 C 361.863281 148.726562 352.566406 174.03125 334.394531 201.503906 C 320.132812 223.03125 300.421875 245.960938 275.675781 269.796875 C 233.808594 310.128906 191.449219 339.347656 191.027344 339.628906 Z M 106.171875 45.621094 C 61.785156 45.621094 25.644531 81.761719 25.644531 126.148438 C 25.644531 146.210938 34.101562 169.207031 50.808594 194.511719 C 64.441406 215.203125 83.59375 237.429688 107.636719 260.5 C 141.679688 293.144531 176.210938 318.378906 187.324219 326.207031 C 198.4375 318.308594 232.757812 292.933594 266.730469 260.21875 C 290.707031 237.082031 309.789062 214.921875 323.488281 194.230469 C 340.195312 168.929688 348.792969 146.070312 348.933594 126.148438 C 348.933594 81.761719 312.792969 45.691406 268.40625 45.691406 C 235.484375 45.691406 205.359375 66.523438 193.335938 97.558594 L 187.253906 113.355469 L 181.242188 97.558594 C 169.21875 66.523438 139.09375 45.621094 106.171875 45.621094 Z M 106.171875 45.621094 " fill-opacity="1" fill-rule="nonzero"/></g></svg>